<svg enable-background="new 0 0 465 351" height="351" viewBox="0 0 465 351" width="465" xmlns="http://www.w3.org/2000/svg"><path d="m305.7 193.9h90.6" fill="none" stroke="#51d7de" stroke-linecap="round" stroke-linejoin="round" stroke-width="2.0047"/><path d="m108.4 241.8h58.7" fill="none" stroke="#51d7de" stroke-linecap="round" stroke-linejoin="round" stroke-width="2.0047"/><path d="m165.4 151.7h150.7c10 0 18 8.1 18 18v118.3c0 10-8.1 18-18 18h-150.7c-10 0-18-8.1-18-18v-118.3c-.1-9.9 8-18 18-18z" fill="#fff"/><path d="m165.4 151.7h150.7c10 0 18 8.1 18 18v118.3c0 10-8.1 18-18 18h-150.7c-10 0-18-8.1-18-18v-118.3c-.1-9.9 8-18 18-18z" style="fill:none;stroke:#034ea6;stroke-width:2.0047;stroke-linecap:round;stroke-linejoin:round;stroke-miterlimit:10"/><path d="m208 258.4c0-8.3 6.7-15 15-15h173.5c8.3 0 15 6.7 15 15v31.4c0 8.5-7 15.3-15.5 15l-209.2-5.8h9.4c6.5 0 11.7-5.2 11.7-11.7v-28.9z" fill="#51d7de"/><circle cx="167.9" cy="168.6" fill="#034ea6" r="5.9"/><circle cx="186.7" cy="168.6" fill="#51d7de" r="5.9"/><path d="m299.4 151.7v-43.1c0-32.4-26.3-58.6-58.6-58.6-32.4 0-58.6 26.3-58.6 58.6v43.1" style="fill:none;stroke:#034ea6;stroke-width:2.0047;stroke-linecap:round;stroke-linejoin:round;stroke-miterlimit:10"/><path d="m285.2 111.2v-2.2c0-24.6-19.9-44.5-44.5-44.5-24.6 0-44.5 19.9-44.5 44.5v2.2" style="fill:none;stroke:#51d7de;stroke-width:2.0047;stroke-linecap:round;stroke-linejoin:round;stroke-miterlimit:10"/><path d="m198.6 200.9h84.4c7 0 12.7 5.7 12.7 12.7 0 7-5.7 12.7-12.7 12.7h-84.3c-7 0-12.7-5.7-12.7-12.7 0-7 5.6-12.7 12.6-12.7z" style="fill:none;stroke:#034ea6;stroke-width:2.0047;stroke-linecap:round;stroke-linejoin:round;stroke-miterlimit:10"/><path d="m204.7 213.6h72.3" style="fill:none;stroke:#51d7de;stroke-width:2.0047;stroke-linecap:round;stroke-linejoin:round;stroke-miterlimit:10"/><path clip-rule="evenodd" d="m320.2 228.3c-1.6-1.7-4.3-1.7-5.8 0l-14.8 15.8h-66.6c-8.3 0-15 6.7-15 15v31.9c0 8.3 6.7 15 15 15h173.5c8.3 0 15-6.7 15-15v-31.8c0-8.3-6.7-15-15-15h-71.5z" fill="#fff" fill-rule="evenodd"/><path d="m314.3 228.3-.7-.7zm5.9 0-.7.7zm-20.7 15.8v1c.3 0 .5-.1.7-.3zm35.5 0-.7.7c.2.2.5.3.7.3zm-20-15.1c1.2-1.3 3.2-1.3 4.4 0l1.5-1.4c-2-2.1-5.3-2.1-7.3 0zm-14.8 15.8 14.8-15.8-1.5-1.4-14.8 15.8zm-67.3.3h66.6v-2h-66.6zm-14.1 14.1c0-7.8 6.3-14 14-14v-2c-8.9 0-16 7.2-16 16zm0 31.8v-31.8h-2v31.8zm14.1 14c-7.8 0-14-6.3-14-14h-2c0 8.9 7.2 16 16 16zm173.5 0h-173.5v2h173.5zm14-14c0 7.8-6.3 14-14 14v2c8.9 0 16-7.2 16-16zm0-31.8v31.8h2v-31.8zm-14-14.1c7.8 0 14 6.3 14 14h2c0-8.9-7.2-16-16-16zm-71.4 0h71.4v-2h-71.4zm-15.6-16.1 14.8 15.8 1.5-1.4-14.8-15.8z" fill="#034ea6"/><path d="m246.4 260.4 146.3-.2c8.1 0 14.6 6.5 14.6 14.6 0 8.1-6.5 14.6-14.6 14.6l-146.3.2c-8.1 0-14.6-6.5-14.6-14.6.1-8.1 6.6-14.6 14.6-14.6z" fill="#fff"/><path d="m246.4 260.4 146.3-.2c8.1 0 14.6 6.5 14.6 14.6 0 8.1-6.5 14.6-14.6 14.6l-146.3.2c-8.1 0-14.6-6.5-14.6-14.6.1-8.1 6.6-14.6 14.6-14.6z" style="fill:none;stroke:#034ea6;stroke-width:2.0047;stroke-linecap:round;stroke-linejoin:round;stroke-miterlimit:10"/><g fill="#034ea6"><ellipse cx="252.6" cy="274.8" rx="4.4" ry="4.4" transform="matrix(.1586 -.9873 .9873 .1586 -58.7133 480.6344)"/><circle cx="268.8" cy="275" r="4.4"/><circle cx="284.9" cy="274.9" r="4.4"/><circle cx="301.1" cy="274.7" r="4.4"/><circle cx="317.2" cy="274.7" r="4.4"/><circle cx="333.4" cy="274.6" r="4.4"/><circle cx="349.5" cy="274.6" r="4.4"/><path d="m386.3 272.2h8c1.1 0 2 .9 2 2v4.8c0 1.1-.9 2-2 2h-8c-1.1 0-2-.9-2-2v-4.8c0-1.1.9-2 2-2z"/></g><path d="m393.4 270.1v3.1h-6.3v-3.1c0-1.7 1.4-3.1 3.1-3.1 1.8 0 3.2 1.4 3.2 3.1z" fill="none" stroke="#034ea6" stroke-width="2.0047"/><path d="m284 50.1c7.5 3.3 26.4 21.9 29.2 50.6v14.1h45.4" fill="none" stroke="#51d7de" stroke-linecap="round" stroke-linejoin="round" stroke-width="2.0047"/><path d="m195.7 48.2c-9.8 5.8-27.1 21.5-30 50.3v43.2h-45.4" fill="none" stroke="#51d7de" stroke-linecap="round" stroke-linejoin="round" stroke-width="2.0047"/><path d="m71.7 103.2h47c8.3 0 15 6.7 15 15v47c0 8.3-6.7 15-15 15h-47c-8.3 0-15-6.7-15-15v-47c0-8.3 6.7-15 15-15z" fill="#fff"/><path d="m71.7 103.2h47c8.3 0 15 6.7 15 15v47c0 8.3-6.7 15-15 15h-47c-8.3 0-15-6.7-15-15v-47c0-8.3 6.7-15 15-15z" style="fill:none;stroke:#034ea6;stroke-width:2.0047;stroke-linecap:round;stroke-linejoin:round;stroke-miterlimit:10"/><path d="m384.4 176.9h20.1c3.9 0 7 3.1 7 7v20.1c0 3.9-3.1 7-7 7h-20.1c-3.9 0-7-3.1-7-7v-20.1c0-3.9 3.2-7 7-7z" style="fill:#fff;stroke:#034ea6;stroke-width:2.0047;stroke-linecap:round;stroke-linejoin:round;stroke-miterlimit:10"/><path clip-rule="evenodd" d="m99.5 144.1c2.5-1.4 4.3-4.2 4.3-7.3.1-4.7-3.7-8.6-8.4-8.6-4.7-.1-8.6 3.7-8.6 8.4 0 3.1 1.6 5.9 4.1 7.4l-.1 11.2 8.6.1z" fill="#034ea6" fill-rule="evenodd"/><path d="m149.6 183.6h182.4" fill="none" stroke="#51d7de" stroke-linecap="round" stroke-linejoin="round" stroke-width="2.0047"/><path d="m377 131.3c10.5.4 19.4-7.8 19.9-18.3.4-10.5-7.8-19.4-18.3-19.9-10.5-.4-19.4 7.8-19.9 18.3-.5 10.6 7.7 19.5 18.3 19.9z" style="fill:none;stroke:#51d7de;stroke-width:2.0047;stroke-linecap:round;stroke-linejoin:round;stroke-miterlimit:10"/><path d="m377.6 115.6c3.6.1 6.7-2.7 6.9-6.3.1-3.6-2.7-6.7-6.3-6.9-3.6-.1-6.7 2.7-6.9 6.3s2.7 6.7 6.3 6.9z" fill="#51d7de"/><path d="m378.1 119.7c-7.5.1-11.9 3.5-13.5 5.9 1.5 2.2 6.2 5.7 13.1 5.9 6 .2 11.3-3.3 13.3-5.3-1.5-1.8-4.7-6.6-12.9-6.5z" fill="#51d7de"/><path d="m78.8 270.3c15.7.6 28.9-11.6 29.6-27.3.6-15.7-11.6-28.9-27.3-29.6s-28.9 11.6-29.6 27.3c-.6 15.7 11.6 28.9 27.3 29.6z" style="fill:none;stroke:#51d7de;stroke-width:2.0047;stroke-linecap:round;stroke-linejoin:round;stroke-miterlimit:10"/><path d="m79.8 246.8c5.4.2 10-4 10.2-9.4s-4-10-9.4-10.2-10 4-10.2 9.4c-.3 5.4 3.9 10 9.4 10.2z" fill="#51d7de"/><path d="m80.5 253c-11.2.1-17.7 5.3-20.2 8.8 2.2 3.3 9.2 8.4 19.5 8.8 8.9.3 16.8-4.9 19.7-7.9-2-2.7-6.8-9.9-19-9.7z" fill="#51d7de"/></svg>